# xmcd
# 
# Track frame offsets:
#     150
#     16392
#     34772
#     52978
#     67682
#     85688
#     100145
#     114980
#     128629
#     146473
#     163557
#     184128
# 
# Disc length: 2663
# 
# Revision: 3
# Processed by: cddbd v1.5.2PL0 Copyright (c) Steve Scherf et al.
# Submitted via: fre:ac v1.0.17
# 
DISCID=8c0a650c
DTITLE=Marstio, Harri - 10
DYEAR=2006
DGENRE=Pop
TTITLE0=Tyttö iloinen
TTITLE1=Vanha mies
TTITLE2=Tämä maa
TTITLE3=Isä ja poika
TTITLE4=Rakkaat sukulaiset
TTITLE5=Laulajan testamentti
TTITLE6=Balladi elokuvasta Klaani
TTITLE7=Pienen pojan haaveet
TTITLE8=Pimeneviin iltoihin
TTITLE9=Kujakissa
TTITLE10=Kalpeaakin kalpeempaa (2006)
TTITLE11=Katseen kosketus
EXTD=
EXTT0=
EXTT1=
EXTT2=
EXTT3=
EXTT4=
EXTT5=
EXTT6=
EXTT7=
EXTT8=
EXTT9=
EXTT10=
EXTT11=
PLAYORDER=
